<?xml version="1.0" encoding="UTF-8"?>
<!-- Generator: Adobe Illustrator 28.1.0, SVG Export Plug-In . SVG Version: 6.00 Build 0)  -->
<svg version="1.1" id="图层_1" xmlns="http://www.w3.org/2000/svg" xmlns:xlink="http://www.w3.org/1999/xlink" x="0px" y="0px" viewBox="0 0 1000 640.9" style="enable-background:new 0 0 1000 640.9;" xml:space="preserve">
<path d="M982.2,301c6.3-4.2,10.9-9.3,13.6-15.5c2.8-6.2,4.1-13.8,4.1-22.9c0-12-3.7-22-11-29.9c-21.7,64-74.7,132.1-150.4,194.3  h60.9c37.8,0,63.6-8.5,77.4-25.6c9.7-11.7,14.5-27.6,14.5-47.7c0-11.3-3.1-20.2-9.3-26.5c-6.2-6.4-14.7-11-25.4-14l0.3-3  C966.5,308.8,974.9,305.7,982.2,301L982.2,301z"/>
<path d="M160.9,214.3H46L5.4,427C22.5,357.8,78,282.6,160.9,214.3L160.9,214.3z"/>
<path d="M517.4,407.6H404.6L391.3,427H260.2l36.4-50.9H133.8L124,427H5.4c-6.6,34.8-7.4,68,5,98.1c56.1,136.2,320.7,155,591.1,42  c92-38.4,172.7-87.2,237.1-140.1h-315L517.4,407.6L517.4,407.6z"/>
<path d="M479.7,296.8l-37.1,54.5h56.7l-17.5-54.5H479.7z"/>
<path d="M329.9,289.4H150.4l-4.7,24.4h169.7l-9.7,49.4L412,214.3h164l66.3,198l38.1-198h249.2c24.3,0,42.1,4.3,53.4,13  c2.2,1.7,4.1,3.5,5.9,5.4c14.1-41.6,15.1-81.4,0.5-116.8c-56.1-136.2-320.7-155-591.1-42c-92.2,38.5-173.1,87.4-237.5,140.5h183.2  L329.9,289.4L329.9,289.4z"/>
<path d="M856.7,271.2h-68.5l-5.3,27.4h68.5c7.1,0,12.4-2.1,15.7-6.3c2.8-3.4,4.2-6.8,4.2-10.1C871.3,274.9,866.4,271.2,856.7,271.2  L856.7,271.2z"/>
<path d="M846.3,343.6h-72.1l-5.6,29.2h71.8c7.9,0,13.5-2.2,16.9-6.5c1.2-1.6,2.2-3.4,3-5.4c0.8-2,1.2-3.8,1.2-5.4  C861.5,347.5,856.4,343.6,846.3,343.6z"/>
</svg>